<mxfile host="app.diagrams.net" modified="2022-05-03T22:16:17.621Z" agent="5.0 (Windows NT 10.0; Win64; x64) AppleWebKit/537.36 (KHTML, like Gecko) Chrome/100.0.4896.127 Safari/537.36" etag="o612hfwe6n4UpRaNa_Kl" version="17.5.0" type="github">
  <diagram id="Er3TAs0pc6LTdXsy5Ztc" name="第 1 页">
    <mxGraphModel dx="1609" dy="436" grid="1" gridSize="10" guides="1" tooltips="1" connect="1" arrows="1" fold="1" page="1" pageScale="1" pageWidth="827" pageHeight="1169" math="0" shadow="0">
      <root>
        <mxCell id="0" />
        <mxCell id="1" parent="0" />
        <mxCell id="eM4Fs4ned6SNrwgzO55C-41" value="" style="edgeStyle=orthogonalEdgeStyle;rounded=0;orthogonalLoop=1;jettySize=auto;html=1;fontSize=11;" parent="1" source="eM4Fs4ned6SNrwgzO55C-13" target="eM4Fs4ned6SNrwgzO55C-39" edge="1">
          <mxGeometry relative="1" as="geometry" />
        </mxCell>
        <mxCell id="eM4Fs4ned6SNrwgzO55C-13" value="" style="html=1;whiteSpace=wrap;shape=isoCube2;backgroundOutline=1;isoAngle=15;fillColor=#f5f5f5;fontColor=#333333;strokeColor=#666666;" parent="1" vertex="1">
          <mxGeometry x="-413" y="80" width="20" height="180" as="geometry" />
        </mxCell>
        <mxCell id="eM4Fs4ned6SNrwgzO55C-31" value="" style="edgeStyle=orthogonalEdgeStyle;rounded=0;orthogonalLoop=1;jettySize=auto;html=1;" parent="1" source="eM4Fs4ned6SNrwgzO55C-20" target="eM4Fs4ned6SNrwgzO55C-13" edge="1">
          <mxGeometry relative="1" as="geometry" />
        </mxCell>
        <mxCell id="eM4Fs4ned6SNrwgzO55C-20" value="" style="html=1;whiteSpace=wrap;shape=isoCube2;backgroundOutline=1;isoAngle=15;fillColor=#f5f5f5;fontColor=#333333;strokeColor=#666666;" parent="1" vertex="1">
          <mxGeometry x="-560" y="100" width="70" height="140" as="geometry" />
        </mxCell>
        <mxCell id="eM4Fs4ned6SNrwgzO55C-22" value="" style="edgeStyle=orthogonalEdgeStyle;rounded=0;orthogonalLoop=1;jettySize=auto;html=1;" parent="1" target="eM4Fs4ned6SNrwgzO55C-20" edge="1">
          <mxGeometry relative="1" as="geometry">
            <mxPoint x="-650" y="170" as="sourcePoint" />
          </mxGeometry>
        </mxCell>
        <mxCell id="eM4Fs4ned6SNrwgzO55C-23" value="输入" style="text;html=1;strokeColor=none;fillColor=none;align=center;verticalAlign=middle;whiteSpace=wrap;rounded=0;" parent="1" vertex="1">
          <mxGeometry x="-730" y="80" width="60" height="30" as="geometry" />
        </mxCell>
        <mxCell id="eM4Fs4ned6SNrwgzO55C-28" value="" style="group" parent="1" vertex="1" connectable="0">
          <mxGeometry x="-750" y="110" width="100" height="100" as="geometry" />
        </mxCell>
        <mxCell id="eM4Fs4ned6SNrwgzO55C-25" value="" style="whiteSpace=wrap;html=1;aspect=fixed;fillColor=#d5e8d4;strokeColor=#82b366;" parent="eM4Fs4ned6SNrwgzO55C-28" vertex="1">
          <mxGeometry width="80" height="80" as="geometry" />
        </mxCell>
        <mxCell id="eM4Fs4ned6SNrwgzO55C-26" value="" style="whiteSpace=wrap;html=1;aspect=fixed;fillColor=#dae8fc;strokeColor=#6c8ebf;" parent="eM4Fs4ned6SNrwgzO55C-28" vertex="1">
          <mxGeometry x="10" y="10" width="80" height="80" as="geometry" />
        </mxCell>
        <mxCell id="eM4Fs4ned6SNrwgzO55C-27" value="" style="whiteSpace=wrap;html=1;aspect=fixed;fillColor=#f8cecc;strokeColor=#b85450;" parent="eM4Fs4ned6SNrwgzO55C-28" vertex="1">
          <mxGeometry x="20" y="20" width="80" height="80" as="geometry" />
        </mxCell>
        <mxCell id="eM4Fs4ned6SNrwgzO55C-29" value="227x227x3" style="text;html=1;strokeColor=none;fillColor=none;align=center;verticalAlign=middle;whiteSpace=wrap;rounded=0;" parent="1" vertex="1">
          <mxGeometry x="-730" y="210" width="60" height="30" as="geometry" />
        </mxCell>
        <mxCell id="eM4Fs4ned6SNrwgzO55C-30" value="11x11&lt;br&gt;s=4" style="text;html=1;strokeColor=none;fillColor=none;align=center;verticalAlign=middle;whiteSpace=wrap;rounded=0;" parent="1" vertex="1">
          <mxGeometry x="-640" y="170" width="60" height="30" as="geometry" />
        </mxCell>
        <mxCell id="eM4Fs4ned6SNrwgzO55C-32" value="3x3&lt;br&gt;s=2" style="text;html=1;strokeColor=none;fillColor=none;align=center;verticalAlign=middle;whiteSpace=wrap;rounded=0;" parent="1" vertex="1">
          <mxGeometry x="-490" y="170" width="60" height="30" as="geometry" />
        </mxCell>
        <mxCell id="eM4Fs4ned6SNrwgzO55C-33" value="&lt;font style=&quot;font-size: 14px&quot;&gt;CONV1&lt;/font&gt;" style="text;html=1;strokeColor=none;fillColor=none;align=center;verticalAlign=middle;whiteSpace=wrap;rounded=0;" parent="1" vertex="1">
          <mxGeometry x="-550" y="60" width="60" height="30" as="geometry" />
        </mxCell>
        <mxCell id="eM4Fs4ned6SNrwgzO55C-34" value="55x55x96" style="text;html=1;strokeColor=none;fillColor=none;align=center;verticalAlign=middle;whiteSpace=wrap;rounded=0;" parent="1" vertex="1">
          <mxGeometry x="-555" y="250" width="60" height="30" as="geometry" />
        </mxCell>
        <mxCell id="eM4Fs4ned6SNrwgzO55C-37" value="max pool" style="text;html=1;strokeColor=none;fillColor=none;align=center;verticalAlign=middle;whiteSpace=wrap;rounded=0;" parent="1" vertex="1">
          <mxGeometry x="-483" y="140" width="60" height="30" as="geometry" />
        </mxCell>
        <mxCell id="eM4Fs4ned6SNrwgzO55C-38" value="&lt;font style=&quot;font-size: 15px&quot;&gt;max pool 1&lt;/font&gt;" style="text;html=1;strokeColor=none;fillColor=none;align=center;verticalAlign=middle;whiteSpace=wrap;rounded=0;" parent="1" vertex="1">
          <mxGeometry x="-433" y="50" width="83" height="30" as="geometry" />
        </mxCell>
        <mxCell id="eM4Fs4ned6SNrwgzO55C-46" value="" style="edgeStyle=orthogonalEdgeStyle;rounded=0;orthogonalLoop=1;jettySize=auto;html=1;fontSize=11;" parent="1" source="eM4Fs4ned6SNrwgzO55C-39" target="eM4Fs4ned6SNrwgzO55C-45" edge="1">
          <mxGeometry relative="1" as="geometry" />
        </mxCell>
        <mxCell id="eM4Fs4ned6SNrwgzO55C-39" value="" style="html=1;whiteSpace=wrap;shape=isoCube2;backgroundOutline=1;isoAngle=15;fillColor=#f5f5f5;fontColor=#333333;strokeColor=#666666;" parent="1" vertex="1">
          <mxGeometry x="-320" y="95" width="40" height="150" as="geometry" />
        </mxCell>
        <mxCell id="eM4Fs4ned6SNrwgzO55C-40" value="&lt;font style=&quot;font-size: 15px&quot;&gt;conv2&lt;/font&gt;" style="text;html=1;strokeColor=none;fillColor=none;align=center;verticalAlign=middle;whiteSpace=wrap;rounded=0;" parent="1" vertex="1">
          <mxGeometry x="-330" y="50" width="60" height="30" as="geometry" />
        </mxCell>
        <mxCell id="eM4Fs4ned6SNrwgzO55C-42" value="5x5&lt;br&gt;same" style="text;html=1;strokeColor=none;fillColor=none;align=center;verticalAlign=middle;whiteSpace=wrap;rounded=0;fontSize=11;" parent="1" vertex="1">
          <mxGeometry x="-390" y="170" width="60" height="30" as="geometry" />
        </mxCell>
        <mxCell id="eM4Fs4ned6SNrwgzO55C-43" value="27x27x256" style="text;html=1;strokeColor=none;fillColor=none;align=center;verticalAlign=middle;whiteSpace=wrap;rounded=0;fontSize=11;" parent="1" vertex="1">
          <mxGeometry x="-330" y="260" width="60" height="30" as="geometry" />
        </mxCell>
        <mxCell id="eM4Fs4ned6SNrwgzO55C-44" value="27x27x96" style="text;html=1;strokeColor=none;fillColor=none;align=center;verticalAlign=middle;whiteSpace=wrap;rounded=0;fontSize=11;" parent="1" vertex="1">
          <mxGeometry x="-433" y="260" width="60" height="30" as="geometry" />
        </mxCell>
        <mxCell id="eM4Fs4ned6SNrwgzO55C-45" value="" style="html=1;whiteSpace=wrap;shape=isoCube2;backgroundOutline=1;isoAngle=15;fontSize=11;fillColor=#f5f5f5;fontColor=#333333;strokeColor=#666666;" parent="1" vertex="1">
          <mxGeometry x="-220" y="85" width="20" height="170" as="geometry" />
        </mxCell>
        <mxCell id="eM4Fs4ned6SNrwgzO55C-47" value="3x3&lt;br&gt;s=2" style="text;html=1;strokeColor=none;fillColor=none;align=center;verticalAlign=middle;whiteSpace=wrap;rounded=0;fontSize=11;" parent="1" vertex="1">
          <mxGeometry x="-280" y="170" width="60" height="30" as="geometry" />
        </mxCell>
        <mxCell id="eM4Fs4ned6SNrwgzO55C-48" value="max pool" style="text;html=1;strokeColor=none;fillColor=none;align=center;verticalAlign=middle;whiteSpace=wrap;rounded=0;fontSize=11;" parent="1" vertex="1">
          <mxGeometry x="-280" y="140" width="60" height="30" as="geometry" />
        </mxCell>
        <mxCell id="eM4Fs4ned6SNrwgzO55C-49" value="&lt;font style=&quot;font-size: 15px&quot;&gt;max pool 2&lt;/font&gt;" style="text;html=1;strokeColor=none;fillColor=none;align=center;verticalAlign=middle;whiteSpace=wrap;rounded=0;fontSize=11;" parent="1" vertex="1">
          <mxGeometry x="-240" y="50" width="80" height="30" as="geometry" />
        </mxCell>
        <mxCell id="eM4Fs4ned6SNrwgzO55C-50" value="13x13x256" style="text;html=1;strokeColor=none;fillColor=none;align=center;verticalAlign=middle;whiteSpace=wrap;rounded=0;fontSize=11;" parent="1" vertex="1">
          <mxGeometry x="-235" y="260" width="60" height="30" as="geometry" />
        </mxCell>
        <mxCell id="eM4Fs4ned6SNrwgzO55C-56" value="" style="edgeStyle=orthogonalEdgeStyle;rounded=0;orthogonalLoop=1;jettySize=auto;html=1;fontSize=11;" parent="1" source="eM4Fs4ned6SNrwgzO55C-51" target="eM4Fs4ned6SNrwgzO55C-55" edge="1">
          <mxGeometry relative="1" as="geometry" />
        </mxCell>
        <mxCell id="eM4Fs4ned6SNrwgzO55C-51" value="" style="html=1;whiteSpace=wrap;shape=isoCube2;backgroundOutline=1;isoAngle=15;fontSize=11;fillColor=#f5f5f5;fontColor=#333333;strokeColor=#666666;" parent="1" vertex="1">
          <mxGeometry x="-720" y="290" width="30" height="150" as="geometry" />
        </mxCell>
        <mxCell id="eM4Fs4ned6SNrwgzO55C-52" value="" style="endArrow=classic;html=1;rounded=0;fontSize=11;entryX=0;entryY=0.5;entryDx=0;entryDy=0;entryPerimeter=0;" parent="1" target="eM4Fs4ned6SNrwgzO55C-51" edge="1">
          <mxGeometry width="50" height="50" relative="1" as="geometry">
            <mxPoint x="-760" y="365" as="sourcePoint" />
            <mxPoint x="-510" y="330" as="targetPoint" />
          </mxGeometry>
        </mxCell>
        <mxCell id="eM4Fs4ned6SNrwgzO55C-53" value="3x3&lt;br&gt;same" style="text;html=1;strokeColor=none;fillColor=none;align=center;verticalAlign=middle;whiteSpace=wrap;rounded=0;fontSize=11;" parent="1" vertex="1">
          <mxGeometry x="-770" y="370" width="60" height="30" as="geometry" />
        </mxCell>
        <mxCell id="eM4Fs4ned6SNrwgzO55C-54" value="13x13x384" style="text;html=1;strokeColor=none;fillColor=none;align=center;verticalAlign=middle;whiteSpace=wrap;rounded=0;fontSize=11;" parent="1" vertex="1">
          <mxGeometry x="-730" y="440" width="60" height="30" as="geometry" />
        </mxCell>
        <mxCell id="eM4Fs4ned6SNrwgzO55C-60" value="" style="edgeStyle=orthogonalEdgeStyle;rounded=0;orthogonalLoop=1;jettySize=auto;html=1;fontSize=11;" parent="1" source="eM4Fs4ned6SNrwgzO55C-55" target="eM4Fs4ned6SNrwgzO55C-58" edge="1">
          <mxGeometry relative="1" as="geometry" />
        </mxCell>
        <mxCell id="eM4Fs4ned6SNrwgzO55C-55" value="" style="html=1;whiteSpace=wrap;shape=isoCube2;backgroundOutline=1;isoAngle=15;fontSize=11;fillColor=#f5f5f5;fontColor=#333333;strokeColor=#666666;" parent="1" vertex="1">
          <mxGeometry x="-610" y="297.5" width="30" height="135" as="geometry" />
        </mxCell>
        <mxCell id="eM4Fs4ned6SNrwgzO55C-57" value="3x3" style="text;html=1;strokeColor=none;fillColor=none;align=center;verticalAlign=middle;whiteSpace=wrap;rounded=0;fontSize=11;" parent="1" vertex="1">
          <mxGeometry x="-680" y="370" width="60" height="30" as="geometry" />
        </mxCell>
        <mxCell id="eM4Fs4ned6SNrwgzO55C-62" value="" style="edgeStyle=orthogonalEdgeStyle;rounded=0;orthogonalLoop=1;jettySize=auto;html=1;fontSize=11;" parent="1" source="eM4Fs4ned6SNrwgzO55C-58" target="eM4Fs4ned6SNrwgzO55C-61" edge="1">
          <mxGeometry relative="1" as="geometry" />
        </mxCell>
        <mxCell id="eM4Fs4ned6SNrwgzO55C-58" value="" style="html=1;whiteSpace=wrap;shape=isoCube2;backgroundOutline=1;isoAngle=15;fontSize=11;fillColor=#f5f5f5;fontColor=#333333;strokeColor=#666666;" parent="1" vertex="1">
          <mxGeometry x="-513" y="298.13" width="30" height="133.75" as="geometry" />
        </mxCell>
        <mxCell id="eM4Fs4ned6SNrwgzO55C-61" value="" style="html=1;whiteSpace=wrap;shape=isoCube2;backgroundOutline=1;isoAngle=15;fontSize=11;fillColor=#f5f5f5;fontColor=#333333;strokeColor=#666666;" parent="1" vertex="1">
          <mxGeometry x="-409" y="298.75" width="26" height="132.5" as="geometry" />
        </mxCell>
        <mxCell id="eM4Fs4ned6SNrwgzO55C-63" value="13x13x256" style="text;html=1;strokeColor=none;fillColor=none;align=center;verticalAlign=middle;whiteSpace=wrap;rounded=0;fontSize=11;" parent="1" vertex="1">
          <mxGeometry x="-528" y="440" width="60" height="30" as="geometry" />
        </mxCell>
        <mxCell id="eM4Fs4ned6SNrwgzO55C-65" value="&lt;font style=&quot;font-size: 15px&quot;&gt;conv3&lt;/font&gt;" style="text;html=1;strokeColor=none;fillColor=none;align=center;verticalAlign=middle;whiteSpace=wrap;rounded=0;fontSize=11;" parent="1" vertex="1">
          <mxGeometry x="-735" y="460" width="60" height="30" as="geometry" />
        </mxCell>
        <mxCell id="eM4Fs4ned6SNrwgzO55C-66" value="&lt;font style=&quot;font-size: 15px&quot;&gt;conv4&lt;/font&gt;" style="text;html=1;strokeColor=none;fillColor=none;align=center;verticalAlign=middle;whiteSpace=wrap;rounded=0;fontSize=11;" parent="1" vertex="1">
          <mxGeometry x="-625" y="460" width="60" height="30" as="geometry" />
        </mxCell>
        <mxCell id="eM4Fs4ned6SNrwgzO55C-67" value="&lt;font style=&quot;font-size: 15px&quot;&gt;conv5&lt;/font&gt;" style="text;html=1;strokeColor=none;fillColor=none;align=center;verticalAlign=middle;whiteSpace=wrap;rounded=0;fontSize=11;" parent="1" vertex="1">
          <mxGeometry x="-528" y="460" width="60" height="30" as="geometry" />
        </mxCell>
        <mxCell id="eM4Fs4ned6SNrwgzO55C-68" value="&lt;font style=&quot;font-size: 12px&quot;&gt;13x13x384&lt;/font&gt;" style="text;html=1;strokeColor=none;fillColor=none;align=center;verticalAlign=middle;whiteSpace=wrap;rounded=0;fontSize=14;" parent="1" vertex="1">
          <mxGeometry x="-625" y="440" width="60" height="30" as="geometry" />
        </mxCell>
        <mxCell id="eM4Fs4ned6SNrwgzO55C-69" value="&lt;font style=&quot;font-size: 12px&quot;&gt;6x6x256&lt;/font&gt;" style="text;html=1;strokeColor=none;fillColor=none;align=center;verticalAlign=middle;whiteSpace=wrap;rounded=0;fontSize=15;" parent="1" vertex="1">
          <mxGeometry x="-433" y="440" width="60" height="30" as="geometry" />
        </mxCell>
        <mxCell id="eM4Fs4ned6SNrwgzO55C-70" value="&lt;font style=&quot;font-size: 15px&quot;&gt;max pool 3&lt;/font&gt;" style="text;html=1;strokeColor=none;fillColor=none;align=center;verticalAlign=middle;whiteSpace=wrap;rounded=0;fontSize=12;" parent="1" vertex="1">
          <mxGeometry x="-433" y="460" width="83" height="30" as="geometry" />
        </mxCell>
        <mxCell id="eM4Fs4ned6SNrwgzO55C-72" value="" style="shape=flexArrow;endArrow=classic;html=1;rounded=0;fontSize=15;" parent="1" edge="1">
          <mxGeometry width="50" height="50" relative="1" as="geometry">
            <mxPoint x="-370" y="360" as="sourcePoint" />
            <mxPoint x="-330" y="360" as="targetPoint" />
          </mxGeometry>
        </mxCell>
        <mxCell id="eM4Fs4ned6SNrwgzO55C-92" value="" style="group" parent="1" vertex="1" connectable="0">
          <mxGeometry x="-315" y="311.25" width="30" height="128.75" as="geometry" />
        </mxCell>
        <mxCell id="eM4Fs4ned6SNrwgzO55C-74" value="" style="rounded=0;whiteSpace=wrap;html=1;fontSize=15;gradientColor=none;" parent="eM4Fs4ned6SNrwgzO55C-92" vertex="1">
          <mxGeometry width="30" height="128.75" as="geometry" />
        </mxCell>
        <mxCell id="eM4Fs4ned6SNrwgzO55C-75" value="" style="ellipse;whiteSpace=wrap;html=1;aspect=fixed;fontSize=15;gradientColor=none;" parent="eM4Fs4ned6SNrwgzO55C-92" vertex="1">
          <mxGeometry x="5" y="8.75" width="20" height="20" as="geometry" />
        </mxCell>
        <mxCell id="eM4Fs4ned6SNrwgzO55C-76" value="" style="ellipse;whiteSpace=wrap;html=1;aspect=fixed;fontSize=15;gradientColor=none;" parent="eM4Fs4ned6SNrwgzO55C-92" vertex="1">
          <mxGeometry x="5" y="38.75" width="20" height="20" as="geometry" />
        </mxCell>
        <mxCell id="eM4Fs4ned6SNrwgzO55C-77" value="" style="ellipse;whiteSpace=wrap;html=1;aspect=fixed;fontSize=15;gradientColor=none;" parent="eM4Fs4ned6SNrwgzO55C-92" vertex="1">
          <mxGeometry x="5" y="100" width="20" height="20" as="geometry" />
        </mxCell>
        <mxCell id="eM4Fs4ned6SNrwgzO55C-80" value="" style="ellipse;whiteSpace=wrap;html=1;aspect=fixed;fontSize=15;gradientColor=none;" parent="eM4Fs4ned6SNrwgzO55C-92" vertex="1">
          <mxGeometry x="5" y="68.75" width="20" height="20" as="geometry" />
        </mxCell>
        <mxCell id="eM4Fs4ned6SNrwgzO55C-93" value="" style="group" parent="1" vertex="1" connectable="0">
          <mxGeometry x="-250" y="311.25" width="30" height="128.75" as="geometry" />
        </mxCell>
        <mxCell id="eM4Fs4ned6SNrwgzO55C-94" value="" style="rounded=0;whiteSpace=wrap;html=1;fontSize=15;gradientColor=none;" parent="eM4Fs4ned6SNrwgzO55C-93" vertex="1">
          <mxGeometry width="30" height="128.75" as="geometry" />
        </mxCell>
        <mxCell id="eM4Fs4ned6SNrwgzO55C-95" value="" style="ellipse;whiteSpace=wrap;html=1;aspect=fixed;fontSize=15;gradientColor=none;" parent="eM4Fs4ned6SNrwgzO55C-93" vertex="1">
          <mxGeometry x="5" y="8.75" width="20" height="20" as="geometry" />
        </mxCell>
        <mxCell id="eM4Fs4ned6SNrwgzO55C-96" value="" style="ellipse;whiteSpace=wrap;html=1;aspect=fixed;fontSize=15;gradientColor=none;" parent="eM4Fs4ned6SNrwgzO55C-93" vertex="1">
          <mxGeometry x="5" y="38.75" width="20" height="20" as="geometry" />
        </mxCell>
        <mxCell id="eM4Fs4ned6SNrwgzO55C-97" value="" style="ellipse;whiteSpace=wrap;html=1;aspect=fixed;fontSize=15;gradientColor=none;" parent="eM4Fs4ned6SNrwgzO55C-93" vertex="1">
          <mxGeometry x="5" y="100" width="20" height="20" as="geometry" />
        </mxCell>
        <mxCell id="eM4Fs4ned6SNrwgzO55C-98" value="" style="ellipse;whiteSpace=wrap;html=1;aspect=fixed;fontSize=15;gradientColor=none;" parent="eM4Fs4ned6SNrwgzO55C-93" vertex="1">
          <mxGeometry x="5" y="68.75" width="20" height="20" as="geometry" />
        </mxCell>
        <mxCell id="eM4Fs4ned6SNrwgzO55C-99" value="" style="group" parent="1" vertex="1" connectable="0">
          <mxGeometry x="-190" y="311.25" width="30" height="128.75" as="geometry" />
        </mxCell>
        <mxCell id="eM4Fs4ned6SNrwgzO55C-100" value="" style="rounded=0;whiteSpace=wrap;html=1;fontSize=15;gradientColor=none;" parent="eM4Fs4ned6SNrwgzO55C-99" vertex="1">
          <mxGeometry width="30" height="128.75" as="geometry" />
        </mxCell>
        <mxCell id="eM4Fs4ned6SNrwgzO55C-101" value="" style="ellipse;whiteSpace=wrap;html=1;aspect=fixed;fontSize=15;gradientColor=none;" parent="eM4Fs4ned6SNrwgzO55C-99" vertex="1">
          <mxGeometry x="5" y="8.75" width="20" height="20" as="geometry" />
        </mxCell>
        <mxCell id="eM4Fs4ned6SNrwgzO55C-102" value="" style="ellipse;whiteSpace=wrap;html=1;aspect=fixed;fontSize=15;gradientColor=none;" parent="eM4Fs4ned6SNrwgzO55C-99" vertex="1">
          <mxGeometry x="5" y="38.75" width="20" height="20" as="geometry" />
        </mxCell>
        <mxCell id="eM4Fs4ned6SNrwgzO55C-103" value="" style="ellipse;whiteSpace=wrap;html=1;aspect=fixed;fontSize=15;gradientColor=none;" parent="eM4Fs4ned6SNrwgzO55C-99" vertex="1">
          <mxGeometry x="5" y="100" width="20" height="20" as="geometry" />
        </mxCell>
        <mxCell id="eM4Fs4ned6SNrwgzO55C-104" value="" style="ellipse;whiteSpace=wrap;html=1;aspect=fixed;fontSize=15;gradientColor=none;" parent="eM4Fs4ned6SNrwgzO55C-99" vertex="1">
          <mxGeometry x="5" y="68.75" width="20" height="20" as="geometry" />
        </mxCell>
        <mxCell id="eM4Fs4ned6SNrwgzO55C-111" value="" style="endArrow=classic;html=1;rounded=0;fontSize=15;entryX=0;entryY=0.5;entryDx=0;entryDy=0;exitX=1;exitY=0.5;exitDx=0;exitDy=0;" parent="1" source="eM4Fs4ned6SNrwgzO55C-74" target="eM4Fs4ned6SNrwgzO55C-94" edge="1">
          <mxGeometry width="50" height="50" relative="1" as="geometry">
            <mxPoint x="-560" y="330" as="sourcePoint" />
            <mxPoint x="-510" y="280" as="targetPoint" />
          </mxGeometry>
        </mxCell>
        <mxCell id="eM4Fs4ned6SNrwgzO55C-112" value="" style="endArrow=classic;html=1;rounded=0;fontSize=15;entryX=0;entryY=0.5;entryDx=0;entryDy=0;exitX=1;exitY=0.5;exitDx=0;exitDy=0;" parent="1" source="eM4Fs4ned6SNrwgzO55C-94" target="eM4Fs4ned6SNrwgzO55C-100" edge="1">
          <mxGeometry width="50" height="50" relative="1" as="geometry">
            <mxPoint x="-560" y="330" as="sourcePoint" />
            <mxPoint x="-510" y="280" as="targetPoint" />
          </mxGeometry>
        </mxCell>
        <mxCell id="eM4Fs4ned6SNrwgzO55C-113" value="&lt;font style=&quot;font-size: 15px&quot;&gt;FC&lt;/font&gt;" style="text;html=1;strokeColor=none;fillColor=none;align=center;verticalAlign=middle;whiteSpace=wrap;rounded=0;fontSize=15;" parent="1" vertex="1">
          <mxGeometry x="-330" y="450" width="60" height="30" as="geometry" />
        </mxCell>
        <mxCell id="eM4Fs4ned6SNrwgzO55C-115" value="&lt;font style=&quot;font-size: 15px&quot;&gt;FC&lt;/font&gt;" style="text;html=1;strokeColor=none;fillColor=none;align=center;verticalAlign=middle;whiteSpace=wrap;rounded=0;fontSize=15;" parent="1" vertex="1">
          <mxGeometry x="-265" y="450" width="60" height="30" as="geometry" />
        </mxCell>
        <mxCell id="eM4Fs4ned6SNrwgzO55C-116" value="&lt;font style=&quot;font-size: 15px&quot;&gt;FC&lt;/font&gt;" style="text;html=1;strokeColor=none;fillColor=none;align=center;verticalAlign=middle;whiteSpace=wrap;rounded=0;fontSize=15;" parent="1" vertex="1">
          <mxGeometry x="-210" y="450" width="60" height="30" as="geometry" />
        </mxCell>
      </root>
    </mxGraphModel>
  </diagram>
</mxfile>
